<svg width="631" height="376" viewBox="0 0 631 376" fill="none" xmlns="http://www.w3.org/2000/svg">
<path d="M303.35 9C285.642 9.00663 268.199 13.5362 252.508 22.2023C236.816 30.8685 223.343 43.4141 213.237 58.7689C203.753 55.8657 193.928 54.3918 184.054 54.3908C157.905 54.4042 132.705 64.7351 113.397 83.3567C94.0891 101.978 82.0669 127.547 79.689 155.046C59.413 161.587 41.6614 174.829 29.0477 192.824C16.434 210.819 9.62473 232.615 9.62243 255.004C9.64513 261.545 10.2492 268.069 11.4266 274.491C9.85547 280.746 9 287.335 9 294.159C9 334.511 38.3533 367 74.8177 367H555.742C592.205 367 621.56 334.512 621.56 294.159C621.56 254.695 593.478 222.774 558.134 221.387C550.952 205.788 539.76 192.636 525.837 183.435C511.913 174.233 495.82 169.353 479.395 169.351C471.634 169.372 463.911 170.482 456.428 172.653C456.442 172.298 456.455 171.943 456.466 171.588C456.466 155.565 452.041 139.891 443.731 126.484C435.422 113.078 423.591 102.522 409.686 96.1105C403.627 71.1893 389.89 49.1043 370.639 33.3337C351.388 17.5631 327.715 9.00178 303.35 9Z" stroke="#9333EA" stroke-width="17.2998" stroke-linecap="round"/>
<path d="M304.113 21.0316C287.168 21.0378 270.476 25.2938 255.461 33.4365C240.446 41.5792 227.553 53.367 217.882 67.7944C208.806 65.0666 199.405 63.6817 189.956 63.6807C164.934 63.6933 140.82 73.4002 122.343 90.8971C103.867 108.394 92.363 132.418 90.0876 158.256C70.6852 164.402 53.6984 176.845 41.6281 193.753C29.5578 210.661 23.0419 231.14 23.0397 252.177C23.0614 258.322 23.6394 264.453 24.7661 270.486C23.2627 276.363 22.4441 282.555 22.4441 288.966C22.4441 326.882 50.5328 357.408 85.4262 357.408H545.631C580.523 357.408 608.613 326.882 608.613 288.966C608.613 251.886 581.741 221.893 547.92 220.591C541.047 205.934 530.338 193.576 517.014 184.93C503.69 176.285 488.29 171.699 472.573 171.697C465.147 171.717 457.756 172.76 450.595 174.8C450.61 174.466 450.622 174.133 450.632 173.799C450.632 158.744 446.397 144.016 438.446 131.42C430.495 118.823 419.173 108.905 405.867 102.881C400.07 79.4646 386.925 58.7136 368.503 43.8955C350.081 29.0775 327.428 21.0333 304.113 21.0316Z" stroke="#A855F7" stroke-width="17.2998" stroke-linecap="round"/>
<ellipse cx="347.5" cy="276" rx="261.5" ry="87" fill="#A855F7"/>
<ellipse cx="180" cy="134.5" rx="87" ry="77.5" fill="#A855F7"/>
<ellipse cx="103" cy="279.5" rx="87" ry="77.5" fill="#A855F7"/>
<ellipse cx="173" cy="282" rx="87" ry="80" fill="#A855F7"/>
<ellipse cx="522.5" cy="293" rx="82.5" ry="74" fill="#A855F7"/>
<ellipse cx="308.5" cy="97.5" rx="104.5" ry="88.5" fill="#9333EA"/>
<ellipse cx="367" cy="162.5" rx="87" ry="77.5" fill="#A855F7"/>
<ellipse cx="461" cy="247.5" rx="87" ry="77.5" fill="#A855F7"/>
<ellipse cx="250" cy="222.5" rx="82" ry="77.5" fill="#A855F7"/>
<ellipse cx="133" cy="229.5" rx="111" ry="80.5" fill="#A855F7"/>
<path d="M314.895 346V170" stroke="white" stroke-width="30" stroke-linecap="round" stroke-linejoin="round"/>
<path d="M217 258L314.894 170L412.789 258" stroke="white" stroke-width="30" stroke-linecap="round" stroke-linejoin="round"/>
<rect x="300" y="349" width="30" height="26" fill="white"/>
</svg>
